<?xml version="1.0" encoding="UTF-8"?>
<svg width="256" height="256" version="1.1" viewBox="0 0 67.733 67.733" xmlns="http://www.w3.org/2000/svg" xmlns:cc="http://creativecommons.org/ns#" xmlns:dc="http://purl.org/dc/elements/1.1/" xmlns:rdf="http://www.w3.org/1999/02/22-rdf-syntax-ns#">
 <metadata>
  <rdf:RDF>
   <cc:Work rdf:about="">
    <dc:format>image/svg+xml</dc:format>
    <dc:type rdf:resource="http://purl.org/dc/dcmitype/StillImage"/>
    <dc:title/>
   </cc:Work>
  </rdf:RDF>
 </metadata>
 <defs>
  <linearGradient id="linearGradient841" x1="93.908" x2="106.61" y1="-80.542" y2="-80.542" gradientTransform="translate(2.7667e-6,-3.4662e-5)" gradientUnits="userSpaceOnUse">
   <stop stop-color="#dc8add" offset="0"/>
   <stop stop-color="#1c71d8" offset="1"/>
  </linearGradient>
 </defs>
 <g transform="matrix(5.3333 0 0 5.3333 -395.69 -500.84)">
  <rect transform="rotate(90)" x="93.908" y="-86.892" width="12.7" height="12.7" ry="6.35" fill="url(#linearGradient841)" stroke-width=".08119"/>
  <rect x="76.309" y="96.025" width="8.4667" height="8.4667" fill-opacity="0" opacity=".5" stroke-width=".08119"/>
  <g transform="matrix(2,0,0,2,109.12,-78.071)" fill="#fff" stroke-width=".040595">
   <path d="m-14.288 88.503-0.21187 0.2589-0.29456-0.15813-0.09612 0.32039-0.3328-0.03359 0.03359 0.3328-0.31988 0.09612h-5.29e-4v5.29e-4l0.15813 0.29404-0.25889 0.21186a0.52917 0.52917 0 0 0 0.52917 0.52917h1.5875a0.52917 0.52917 0 0 0 0.52917-0.52917l-0.2589-0.21187 0.15813-0.29456-0.32039-0.09612 0.03359-0.3328-0.3328 0.03359-0.09612-0.31988v-5.29e-4h-5.29e-4l-0.29404 0.15813zm-0.39998 1.3229a0.13229 0.13229 0 0 1 0.0031 0 0.13229 0.13229 0 0 1 0.13229 0.13229 0.13229 0.13229 0 0 1-0.13229 0.13229 0.13229 0.13229 0 0 1-0.13229-0.13229 0.13229 0.13229 0 0 1 0.12919-0.13229zm0.79375 0a0.13229 0.13229 0 0 1 0.0031 0 0.13229 0.13229 0 0 1 0.13229 0.13229 0.13229 0.13229 0 0 1-0.13229 0.13229 0.13229 0.13229 0 0 1-0.13229-0.13229 0.13229 0.13229 0 0 1 0.12919-0.13229z" enable-background="new"/>
   <path d="m-12.435 88.045a0.52917 0.52917 0 0 1 0.24655 0.59523 0.52917 0.52917 0 0 1-0.51114 0.39221 0.52917 0.52917 0 0 1-0.51114-0.39221 0.52917 0.52917 0 0 1 0.24655-0.59523l0.26458 0.45827z" enable-background="new"/>
   <path d="m-15.61 87.78a0.52917 0.52917 0 0 1 0.24655 0.59523 0.52917 0.52917 0 0 1-0.51114 0.39221 0.52917 0.52917 0 0 1-0.51114-0.39221 0.52917 0.52917 0 0 1 0.24655-0.59523l0.26458 0.45827z" enable-background="new"/>
   <g shape-rendering="auto">
    <path d="m-12.7 88.768v0.39688c0 0.07463-0.05766 0.13229-0.13229 0.13229h-0.39688v0.26458h0.39688c0.21762 0 0.39688-0.17926 0.39688-0.39688v-0.39688z" color="#000000" color-rendering="auto" dominant-baseline="auto" image-rendering="auto" solid-color="#000000" stop-color="#000000" style="font-feature-settings:normal;font-variant-alternates:normal;font-variant-caps:normal;font-variant-east-asian:normal;font-variant-ligatures:normal;font-variant-numeric:normal;font-variant-position:normal;font-variation-settings:normal;inline-size:0;isolation:auto;mix-blend-mode:normal;shape-margin:0;shape-padding:0;text-decoration-color:#000000;text-decoration-line:none;text-decoration-style:solid;text-indent:0;text-orientation:mixed;text-transform:none;white-space:normal"/>
    <path d="m-15.875 88.503v0.66146c0 0.21762 0.17926 0.39688 0.39688 0.39688h0.39688v-0.26458h-0.39688c-0.07463 0-0.13229-0.05766-0.13229-0.13229v-0.66146z" color="#000000" color-rendering="auto" dominant-baseline="auto" image-rendering="auto" solid-color="#000000" stop-color="#000000" style="font-feature-settings:normal;font-variant-alternates:normal;font-variant-caps:normal;font-variant-east-asian:normal;font-variant-ligatures:normal;font-variant-numeric:normal;font-variant-position:normal;font-variation-settings:normal;inline-size:0;isolation:auto;mix-blend-mode:normal;shape-margin:0;shape-padding:0;text-decoration-color:#000000;text-decoration-line:none;text-decoration-style:solid;text-indent:0;text-orientation:mixed;text-transform:none;white-space:normal"/>
    <g transform="matrix(.26458 0 0 .26458 -58.738 41.407)" enable-background="new">
     <path d="m171.5 183v1h2c0.28206 0 0.5 0.21794 0.5 0.5v1h1v-1c0-0.8225-0.6775-1.5-1.5-1.5h-1.5z" color="#000000" color-rendering="auto" dominant-baseline="auto" enable-background="accumulate" image-rendering="auto" solid-color="#000000" stop-color="#000000" style="font-feature-settings:normal;font-variant-alternates:normal;font-variant-caps:normal;font-variant-east-asian:normal;font-variant-ligatures:normal;font-variant-numeric:normal;font-variant-position:normal;font-variation-settings:normal;inline-size:0;isolation:auto;mix-blend-mode:normal;shape-margin:0;shape-padding:0;text-decoration-color:#000000;text-decoration-line:none;text-decoration-style:solid;text-indent:0;text-orientation:mixed;text-transform:none;white-space:normal"/>
     <path d="m169.5 184v1h2c0.28206 0 0.5 0.21794 0.5 0.5v1h1v-1c0-0.8225-0.6775-1.5-1.5-1.5h-1.5z" color="#000000" color-rendering="auto" dominant-baseline="auto" enable-background="accumulate" image-rendering="auto" solid-color="#000000" stop-color="#000000" style="font-feature-settings:normal;font-variant-alternates:normal;font-variant-caps:normal;font-variant-east-asian:normal;font-variant-ligatures:normal;font-variant-numeric:normal;font-variant-position:normal;font-variation-settings:normal;inline-size:0;isolation:auto;mix-blend-mode:normal;shape-margin:0;shape-padding:0;text-decoration-color:#000000;text-decoration-line:none;text-decoration-style:solid;text-indent:0;text-orientation:mixed;text-transform:none;white-space:normal"/>
     <path d="m162.5 183c-0.8225 0-1.5 0.6775-1.5 1.5v1h1v-1c0-0.28206 0.21794-0.5 0.5-0.5h2v-1h-0.5z" color="#000000" color-rendering="auto" dominant-baseline="auto" enable-background="accumulate" image-rendering="auto" solid-color="#000000" stop-color="#000000" style="font-feature-settings:normal;font-variant-alternates:normal;font-variant-caps:normal;font-variant-east-asian:normal;font-variant-ligatures:normal;font-variant-numeric:normal;font-variant-position:normal;font-variation-settings:normal;inline-size:0;isolation:auto;mix-blend-mode:normal;shape-margin:0;shape-padding:0;text-decoration-color:#000000;text-decoration-line:none;text-decoration-style:solid;text-indent:0;text-orientation:mixed;text-transform:none;white-space:normal"/>
     <path d="m164.5 184c-0.8225 0-1.5 0.6775-1.5 1.5v1h1v-1c0-0.28206 0.21794-0.5 0.5-0.5h2v-1h-0.5z" color="#000000" color-rendering="auto" dominant-baseline="auto" enable-background="accumulate" image-rendering="auto" solid-color="#000000" stop-color="#000000" style="font-feature-settings:normal;font-variant-alternates:normal;font-variant-caps:normal;font-variant-east-asian:normal;font-variant-ligatures:normal;font-variant-numeric:normal;font-variant-position:normal;font-variation-settings:normal;inline-size:0;isolation:auto;mix-blend-mode:normal;shape-margin:0;shape-padding:0;text-decoration-color:#000000;text-decoration-line:none;text-decoration-style:solid;text-indent:0;text-orientation:mixed;text-transform:none;white-space:normal"/>
    </g>
   </g>
  </g>
 </g>
</svg>
