<?xml version="1.0" encoding="UTF-8"?>
<svg version="1.1" viewBox="0 0 256 256" xmlns="http://www.w3.org/2000/svg"><defs><linearGradient id="lg" x1="93.908" x2="106.61" y1="-80.542" y2="-80.542" gradientTransform="translate(2.7667e-6,-3.4662e-5)" gradientUnits="userSpaceOnUse"><stop stop-color="#dc8add" offset="0"/><stop stop-color="#1c71d8" offset="1"/></linearGradient></defs><g transform="matrix(20.157 0 0 20.157 -1495.5 -1892.9)"><rect transform="rotate(90)" x="93.908" y="-86.892" width="12.7" height="12.7" ry="6.35" fill="url(#lg)"/><rect x="76.309" y="96.025" width="8.4667" height="8.4667" fill-opacity="0"/><g transform="matrix(2,0,0,2,109.12,-78.071)" fill="#fff"><path d="m-14.288 88.503-0.21187 0.2589-0.29456-0.15813-0.09612 0.32039-0.3328-0.03359 0.03359 0.3328-0.31988 0.09612h-5.29e-4v5.29e-4l0.15813 0.29404-0.25889 0.21186a0.52917 0.52917 0 0 0 0.52917 0.52917h1.5875a0.52917 0.52917 0 0 0 0.52917-0.52917l-0.2589-0.21187 0.15813-0.29456-0.32039-0.09612 0.03359-0.3328-0.3328 0.03359-0.09612-0.31988v-5.29e-4h-5.29e-4l-0.29404 0.15813zm-0.39998 1.3229a0.13229 0.13229 0 0 1 0.0031 0 0.13229 0.13229 0 0 1 0.13229 0.13229 0.13229 0.13229 0 0 1-0.13229 0.13229 0.13229 0.13229 0 0 1-0.13229-0.13229 0.13229 0.13229 0 0 1 0.12919-0.13229zm0.79375 0a0.13229 0.13229 0 0 1 0.0031 0 0.13229 0.13229 0 0 1 0.13229 0.13229 0.13229 0.13229 0 0 1-0.13229 0.13229 0.13229 0.13229 0 0 1-0.13229-0.13229 0.13229 0.13229 0 0 1 0.12919-0.13229z"/><path d="m-12.435 88.045a0.52917 0.52917 0 0 1 0.24655 0.59523 0.52917 0.52917 0 0 1-0.51114 0.39221 0.52917 0.52917 0 0 1-0.51114-0.39221 0.52917 0.52917 0 0 1 0.24655-0.59523l0.26458 0.45827z"/><path d="m-15.61 87.78a0.52917 0.52917 0 0 1 0.24655 0.59523 0.52917 0.52917 0 0 1-0.51114 0.39221 0.52917 0.52917 0 0 1-0.51114-0.39221 0.52917 0.52917 0 0 1 0.24655-0.59523l0.26458 0.45827z"/><path d="m-12.7 88.768v0.39688c0 0.07463-0.05766 0.13229-0.13229 0.13229h-0.39688v0.26458h0.39688c0.21762 0 0.39688-0.17926 0.39688-0.39688v-0.39688z"/><path d="m-15.875 88.503v0.66146c0 0.21762 0.17926 0.39688 0.39688 0.39688h0.39688v-0.26458h-0.39688c-0.07463 0-0.13229-0.05766-0.13229-0.13229v-0.66146z"/><g transform="matrix(.26458 0 0 .26458 -58.738 41.407)"><path d="m171.5 183v1h2c0.28206 0 0.5 0.21794 0.5 0.5v1h1v-1c0-0.8225-0.6775-1.5-1.5-1.5h-1.5z"/><path d="m169.5 184v1h2c0.28206 0 0.5 0.21794 0.5 0.5v1h1v-1c0-0.8225-0.6775-1.5-1.5-1.5h-1.5z"/><path d="m162.5 183c-0.8225 0-1.5 0.6775-1.5 1.5v1h1v-1c0-0.28206 0.21794-0.5 0.5-0.5h2v-1h-0.5z"/><path d="m164.5 184c-0.8225 0-1.5 0.6775-1.5 1.5v1h1v-1c0-0.28206 0.21794-0.5 0.5-0.5h2v-1h-0.5z"/></g></g></g></svg>
