<?xml version="1.0" encoding="UTF-8"?>
<svg height="128px" viewBox="0 0 128 128" width="128px" xmlns="http://www.w3.org/2000/svg" xmlns:xlink="http://www.w3.org/1999/xlink">
    <filter id="a" height="100%" width="100%" x="0%" y="0%">
        <feColorMatrix color-interpolation-filters="sRGB" values="0 0 0 0 1 0 0 0 0 1 0 0 0 0 1 0 0 0 1 0"/>
    </filter>
    <linearGradient id="b" gradientUnits="userSpaceOnUse" x1="64.874735" x2="64.874735" y1="10.000188" y2="122.729988">
        <stop offset="0" stop-color="#3584e4"/>
        <stop offset="1" stop-color="#1c71d8"/>
    </linearGradient>
    <linearGradient id="c" gradientUnits="userSpaceOnUse" x1="64.874735" x2="64.874735" y1="25.030828" y2="115.214668">
        <stop offset="0" stop-color="#ffffff"/>
        <stop offset="1" stop-color="#f6f5f4"/>
    </linearGradient>
    <clipPath id="d">
        <rect height="128" width="128"/>
    </clipPath>
    <clipPath id="e">
        <rect height="128" width="128"/>
    </clipPath>
    <mask id="f">
        <g filter="url(#a)">
            <g clip-path="url(#e)" filter="url(#a)">
                <g clip-path="url(#d)">
                    <path d="m 31.054688 10 h 67.640624 c 8.300782 0 15.027344 6.730469 15.027344 15.03125 v 82.667969 c 0 8.300781 -6.726562 15.03125 -15.027344 15.03125 h -67.640624 c -8.300782 0 -15.03125 -6.730469 -15.03125 -15.03125 v -82.667969 c 0 -8.300781 6.730468 -15.03125 15.03125 -15.03125 z m 0 0" fill="url(#b)"/>
                    <path d="m 31.054688 25.03125 h 67.640624 c 4.148438 0 7.515626 3.363281 7.515626 7.515625 v 75.152344 c 0 4.152343 -3.367188 7.515625 -7.515626 7.515625 h -67.640624 c -4.148438 0 -7.515626 -3.363282 -7.515626 -7.515625 v -75.152344 c 0 -4.152344 3.367188 -7.515625 7.515626 -7.515625 z m 0 0" fill="url(#c)"/>
                    <path d="m 46.085938 10 v 9.394531 c 0 4.164063 3.351562 7.515625 7.515624 7.515625 h 22.546876 c 4.164062 0 7.515624 -3.351562 7.515624 -7.515625 v -9.394531 z m 0 0" fill="#241f31"/>
                    <path d="m 27.998822 40.999226 l 5.002283 5.002282 l 8.998286 -10.000407" fill="none" stroke="#33d17a" stroke-linecap="round" stroke-linejoin="round" stroke-width="4" transform="matrix(0.939415 0 0 0.939415 4.752175 6.242528)"/>
                    <path d="m 39.770611 95.250911 c 0 3.314064 -2.68618 6.000244 -6.000244 6.000244 s -6.000244 -2.68618 -6.000244 -6.000244 s 2.68618 -6.000244 6.000244 -6.000244 s 6.000244 2.68618 6.000244 6.000244 z m 0 0" fill="none" stroke="#c0bfbc" stroke-width="2.5" transform="matrix(0.939415 0 0 0.939415 4.752175 6.242528)"/>
                    <path d="m 53.242188 41.941406 h 39.453124 c 1.558594 0 2.820313 1.261719 2.820313 2.816406 c 0 1.558594 -1.261719 2.820313 -2.820313 2.820313 h -39.453124 c -1.558594 0 -2.820313 -1.261719 -2.820313 -2.820313 c 0 -1.554687 1.261719 -2.816406 2.820313 -2.816406 z m 0 0" fill="#deddda"/>
                    <path d="m 27.998822 67.998244 l 5.002283 5.002282 l 8.998286 -10.000406" fill="none" stroke="#33d17a" stroke-linecap="round" stroke-linejoin="round" stroke-width="4" transform="matrix(0.939415 0 0 0.939415 4.752175 6.242528)"/>
                    <path d="m 53.242188 67.304688 h 39.453124 c 1.558594 0 2.820313 1.261718 2.820313 2.816406 c 0 1.558594 -1.261719 2.820312 -2.820313 2.820312 h -39.453124 c -1.558594 0 -2.820313 -1.261718 -2.820313 -2.820312 c 0 -1.554688 1.261719 -2.816406 2.820313 -2.816406 z m 0 0" fill="#deddda"/>
                    <path d="m 53.242188 93.046875 h 39.453124 c 1.558594 0 2.820313 1.261719 2.820313 2.820313 c 0 1.554687 -1.261719 2.816406 -2.820313 2.816406 h -39.453124 c -1.558594 0 -2.820313 -1.261719 -2.820313 -2.816406 c 0 -1.558594 1.261719 -2.820313 2.820313 -2.820313 z m 0 0" fill="#deddda"/>
                </g>
            </g>
        </g>
    </mask>
    <mask id="g">
        <g filter="url(#a)">
            <rect fill-opacity="0.8" height="184.32" width="184.32" x="-28.16" y="-28.16"/>
        </g>
    </mask>
    <linearGradient id="h" gradientTransform="matrix(0 0.37 -0.98462 0 295.38501 -30.360001)" gradientUnits="userSpaceOnUse" x1="300" x2="428" y1="235" y2="235">
        <stop offset="0" stop-color="#f9f06b"/>
        <stop offset="1" stop-color="#f5c211"/>
    </linearGradient>
    <clipPath id="i">
        <rect height="128" width="128"/>
    </clipPath>
    <clipPath id="j">
        <rect height="128" width="128"/>
    </clipPath>
    <path d="m 31.054688 10 h 67.640624 c 8.300782 0 15.027344 6.730469 15.027344 15.03125 v 82.667969 c 0 8.300781 -6.726562 15.03125 -15.027344 15.03125 h -67.640624 c -8.300782 0 -15.03125 -6.730469 -15.03125 -15.03125 v -82.667969 c 0 -8.300781 6.730468 -15.03125 15.03125 -15.03125 z m 0 0" fill="url(#b)"/>
    <path d="m 31.054688 25.03125 h 67.640624 c 4.148438 0 7.515626 3.363281 7.515626 7.515625 v 75.152344 c 0 4.152343 -3.367188 7.515625 -7.515626 7.515625 h -67.640624 c -4.148438 0 -7.515626 -3.363282 -7.515626 -7.515625 v -75.152344 c 0 -4.152344 3.367188 -7.515625 7.515626 -7.515625 z m 0 0" fill="url(#c)"/>
    <path d="m 46.085938 10 v 9.394531 c 0 4.164063 3.351562 7.515625 7.515624 7.515625 h 22.546876 c 4.164062 0 7.515624 -3.351562 7.515624 -7.515625 v -9.394531 z m 0 0" fill="#241f31"/>
    <path d="m 31.05468836913 44.75781589279 l 4.69921968445 4.69921874503 l 8.45312484269 -9.39453234191" fill="none" stroke="#33d17a" stroke-linecap="round" stroke-linejoin="round" stroke-width="3.75766"/>
    <path d="m 42.11328353257 95.72266255707 c 0 3.11328143256 -2.5234377847 5.63671921726 -5.63671921726 5.63671921726 s -5.63671921726 -2.5234377847 -5.63671921726 -5.63671921726 s 2.5234377847 -5.63671921726 5.63671921726 -5.63671921726 s 5.63671921726 2.5234377847 5.63671921726 5.63671921726 z m 0 0" fill="none" stroke="#c0bfbc" stroke-width="2.3485375"/>
    <path d="m 53.242188 41.941406 h 39.453124 c 1.558594 0 2.820313 1.261719 2.820313 2.816406 c 0 1.558594 -1.261719 2.820313 -2.820313 2.820313 h -39.453124 c -1.558594 0 -2.820313 -1.261719 -2.820313 -2.820313 c 0 -1.554687 1.261719 -2.816406 2.820313 -2.816406 z m 0 0" fill="#deddda"/>
    <path d="m 31.05468836913 70.12109838726 l 4.69921968445 4.69921874503 l 8.45312484269 -9.39453140249" fill="none" stroke="#33d17a" stroke-linecap="round" stroke-linejoin="round" stroke-width="3.75766"/>
    <path d="m 53.242188 67.304688 h 39.453124 c 1.558594 0 2.820313 1.261718 2.820313 2.816406 c 0 1.558594 -1.261719 2.820312 -2.820313 2.820312 h -39.453124 c -1.558594 0 -2.820313 -1.261718 -2.820313 -2.820312 c 0 -1.554688 1.261719 -2.816406 2.820313 -2.816406 z m 0 0" fill="#deddda"/>
    <path d="m 53.242188 93.046875 h 39.453124 c 1.558594 0 2.820313 1.261719 2.820313 2.820313 c 0 1.554687 -1.261719 2.816406 -2.820313 2.816406 h -39.453124 c -1.558594 0 -2.820313 -1.261719 -2.820313 -2.816406 c 0 -1.558594 1.261719 -2.820313 2.820313 -2.820313 z m 0 0" fill="#deddda"/>
    <g mask="url(#f)">
        <g clip-path="url(#j)">
            <g mask="url(#g)">
                <g clip-path="url(#i)">
                    <path d="m 128 80.640625 v 47.359375 h -128 v -47.359375 z m 0 0" fill="url(#h)"/>
                    <path d="m 13.308594 80.640625 l 47.355468 47.359375 h 21.214844 l -47.359375 -47.359375 z m 42.421875 0 l 47.363281 47.359375 h 21.214844 l -47.363282 -47.359375 z m 42.429687 0 l 29.839844 29.839844 v -21.210938 l -8.628906 -8.628906 z m -98.160156 7.90625 v 21.214844 l 18.238281 18.238281 h 21.214844 z m 0 0"/>
                </g>
            </g>
        </g>
    </g>
</svg>
